<svg width="100" height="100" viewBox="0 0 100 100" fill="none" xmlns="http://www.w3.org/2000/svg">
<path d="M35.924 89.748C36.2837 90.1381 36.475 90.6543 36.4563 91.1846C36.4376 91.7149 36.2104 92.2163 35.824 92.58L31.48 96.642C31.0921 97.0024 30.577 97.1941 30.0479 97.175C29.5188 97.1558 29.0189 96.9275 28.658 96.54L3.35999 69.276C3.00049 68.8857 2.80954 68.3693 2.82864 67.8391C2.84774 67.3088 3.07534 66.8075 3.46199 66.444L7.81199 62.388C8.00393 62.2093 8.22921 62.0702 8.47494 61.9786C8.72068 61.8871 8.98205 61.8448 9.24412 61.8543C9.5062 61.8637 9.76384 61.9248 10.0023 62.0339C10.2408 62.1429 10.4554 62.298 10.634 62.49L35.924 89.748ZM68.204 38.448C68.5635 38.8383 68.7544 39.3547 68.7353 39.885C68.7162 40.4153 68.4886 40.9166 68.102 41.28L40.762 66.82C40.3741 67.1804 39.859 67.3721 39.3299 67.353C38.8008 67.3338 38.3009 67.1055 37.94 66.718L31.414 59.676C31.0545 59.2857 30.8635 58.7693 30.8826 58.2391C30.9017 57.7088 31.1293 57.2075 31.516 56.844L58.85 31.304C59.0418 31.1254 59.2669 30.9863 59.5124 30.8948C59.758 30.8032 60.0192 30.761 60.2811 30.7704C60.543 30.7799 60.8005 30.8409 61.0388 30.95C61.2771 31.059 61.4916 31.214 61.67 31.406L68.204 38.448ZM45.226 81.054C45.974 81.86 45.928 83.134 45.124 83.886L40.774 87.946C40.582 88.1247 40.3568 88.2638 40.111 88.3554C39.8653 88.447 39.6039 88.4893 39.3419 88.4798C39.0798 88.4703 38.8221 88.4093 38.5837 88.3002C38.3452 88.1911 38.1305 88.0361 37.952 87.844L12.668 60.58C12.3082 60.19 12.1169 59.6738 12.1357 59.1435C12.1544 58.6132 12.3816 58.1117 12.768 57.748L17.11 53.69C17.4979 53.3296 18.013 53.138 18.5421 53.1571C19.0712 53.1762 19.5711 53.4046 19.932 53.792L45.226 81.054ZM87.352 39.426C87.7112 39.8166 87.9018 40.3331 87.8824 40.8634C87.8629 41.3937 87.6349 41.8949 87.248 42.258L82.9 46.318C82.512 46.6788 81.9967 46.8709 81.4673 46.8521C80.9379 46.8334 80.4375 46.6053 80.076 46.218L54.788 18.96C54.4277 18.5702 54.2361 18.0539 54.2548 17.5234C54.2736 16.993 54.5011 16.4914 54.888 16.128L59.248 12.058C59.4398 11.8794 59.6649 11.7403 59.9104 11.6488C60.156 11.5572 60.4172 11.515 60.6791 11.5244C60.941 11.5339 61.1985 11.5949 61.4368 11.704C61.6751 11.813 61.8896 11.968 62.068 12.16L87.352 39.426ZM96.64 30.746C96.9991 31.1369 97.1898 31.6535 97.1707 32.184C97.1516 32.7144 96.9243 33.216 96.538 33.58L92.198 37.638C92.0063 37.8168 91.7813 37.956 91.5358 38.0477C91.2903 38.1395 91.0292 38.1819 90.7673 38.1726C90.5053 38.1633 90.2478 38.1025 90.0095 37.9936C89.7711 37.8847 89.5565 37.7299 89.378 37.538L64.094 10.268C63.7346 9.87743 63.5436 9.36096 63.5623 8.83051C63.581 8.30006 63.808 7.79834 64.194 7.43403L68.538 3.36803C68.7293 3.1891 68.9541 3.0497 69.1995 2.95785C69.4449 2.866 69.7059 2.8235 69.9678 2.83279C70.2296 2.84209 70.487 2.90298 70.7252 3.01199C70.9634 3.121 71.1778 3.27598 71.356 3.46803L96.64 30.746Z" fill="black"/>
</svg>
