<svg width="100" height="100" viewBox="0 0 100 100" fill="none" xmlns="http://www.w3.org/2000/svg">
<g clip-path="url(#clip0_11_18)">
<path d="M95.3125 0H57.8125C55.2375 0 51.6312 1.49375 49.8125 3.3125L3.31875 49.8062C2.44208 50.687 1.94991 51.8792 1.94991 53.1219C1.94991 54.3646 2.44208 55.5567 3.31875 56.4375L43.5625 96.6813C44.4433 97.5579 45.6354 98.0501 46.8781 98.0501C48.1208 98.0501 49.313 97.5579 50.1938 96.6813L96.6875 50.1875C98.5125 48.3625 100 44.7625 100 42.1875V4.6875C99.9951 3.44582 99.4996 2.2564 98.6216 1.37839C97.7436 0.500383 96.5542 0.00493716 95.3125 0ZM71.875 37.5C70.6434 37.4996 69.424 37.2566 68.2864 36.7849C67.1487 36.3133 66.1151 35.6221 65.2446 34.751C64.374 33.8799 63.6836 32.8458 63.2127 31.7078C62.7417 30.5699 62.4996 29.3503 62.5 28.1187C62.5004 26.8872 62.7434 25.6678 63.2151 24.5301C63.6867 23.3925 64.3779 22.3589 65.249 21.4883C66.1201 20.6178 67.1542 19.9273 68.2922 19.4564C69.4301 18.9855 70.6497 18.7433 71.8813 18.7437C74.3685 18.7446 76.7535 19.7334 78.5117 21.4928C80.2698 23.2521 81.2571 25.6378 81.2563 28.125C81.2554 30.6122 80.2666 32.9973 78.5072 34.7554C76.7479 36.5136 74.3622 37.5008 71.875 37.5Z" fill="black"/>
</g>
<defs>
<clipPath id="clip0_11_18">
<rect width="100" height="100" fill="white"/>
</clipPath>
</defs>
</svg>
