<svg width="100" height="100" viewBox="0 0 100 100" fill="none" xmlns="http://www.w3.org/2000/svg">
<path d="M94.462 82H62V90H94.794C95.5169 90.0356 96.23 89.8215 96.8138 89.3936C97.3975 88.9657 97.8164 88.3501 98 87.65V85.71C98 85.71 97.976 82 94.462 82ZM89.972 80.42C92.103 80.4168 94.1455 79.5678 95.6508 78.0595C97.1561 76.5512 98.0011 74.507 98 72.376C98 67.922 94.4 64.33 89.972 64.33C88.9175 64.3318 87.8737 64.5414 86.9003 64.9469C85.9268 65.3523 85.0428 65.9456 84.2987 66.6928C83.5547 67.44 82.9651 68.3265 82.5639 69.3017C82.1626 70.2768 81.9574 71.3215 81.96 72.376C81.96 76.814 85.55 80.42 89.972 80.42ZM73.064 80C77.276 80 80.664 77.032 80.664 72.826C80.662 68.628 77.262 66.426 73.082 66.394L62 67.798V80H73.064ZM37.046 27.866C41.964 27.866 45.942 23.866 45.942 18.932C45.942 13.998 41.964 10 37.046 10C32.132 10 28.148 13.998 28.148 18.932C28.148 23.866 32.132 27.866 37.046 27.866ZM27.962 56.778L27.882 56.662L23.85 47.274L23.844 66H35.894L38.526 63.2L31.388 60.452C29.696 59.816 28.494 58.376 27.962 56.778ZM30.516 55.936C30.906 56.812 31.628 57.522 32.536 57.848L46.29 62.946C46.709 63.1304 47.1604 63.2302 47.6181 63.2397C48.0758 63.2492 48.5309 63.1681 48.9572 63.0013C49.3835 62.8344 49.7726 62.5849 50.1022 62.2672C50.4319 61.9495 50.6955 61.5699 50.878 61.15C51.2503 60.2991 51.2709 59.3354 50.9351 58.4695C50.5994 57.6035 49.9346 56.9055 49.086 56.528L36.396 51.736L32.476 42.334L35.032 41.382L38.354 49.438L48 53.014V43.17L53.12 46.216L55.672 59.072C55.819 59.507 56.0507 59.9085 56.3538 60.2534C56.6569 60.5982 57.0253 60.8796 57.4378 61.0812C57.8503 61.2828 58.2987 61.4006 58.757 61.4279C59.2153 61.4552 59.6745 61.3913 60.108 61.24C60.981 60.9295 61.6963 60.2872 62.0988 59.4527C62.5013 58.6181 62.5585 57.6585 62.258 56.782L59.398 44.4C59.2106 43.7145 58.8185 43.1026 58.274 42.646C56.808 41.022 49.394 32.732 48.866 32.178C48.092 31.402 46.322 30 42.978 30H30.978C24.158 30 22.846 36.96 24.24 40.5L30.516 55.936ZM60 68H5.934C3.966 68 2 69.11 2 71.552V90H60V68Z" fill="black"/>
</svg>
