<svg width="100" height="100" viewBox="0 0 100 100" fill="none" xmlns="http://www.w3.org/2000/svg">
<path d="M25 33.3333C22.7083 33.3333 20.7458 32.5166 19.1125 30.8833C17.4792 29.25 16.6639 27.2889 16.6667 25C16.6667 22.7083 17.4833 20.7458 19.1167 19.1125C20.75 17.4791 22.7111 16.6639 25 16.6666C27.2917 16.6666 29.2542 17.4833 30.8875 19.1166C32.5208 20.75 33.3361 22.7111 33.3333 25C33.3333 27.2916 32.5167 29.2541 30.8833 30.8875C29.25 32.5208 27.2889 33.3361 25 33.3333ZM53.9583 91.6666C52.8472 91.6666 51.8917 91.2847 51.0917 90.5208C50.2917 89.7569 49.8583 88.8194 49.7917 87.7083L47.9167 50L33.3333 45.8333H8.33334C7.15278 45.8333 6.1625 45.4333 5.3625 44.6333C4.5625 43.8333 4.16389 42.8444 4.16667 41.6666C4.16667 40.4861 4.56667 39.4958 5.36667 38.6958C6.16667 37.8958 7.15556 37.4972 8.33334 37.5H29.1667L55.2083 18.8541C56.1111 18.2291 57.0833 17.9861 58.125 18.125C59.1667 18.2639 60.0695 18.75 60.8333 19.5833C61.5972 20.5555 61.9097 21.6139 61.7708 22.7583C61.6319 23.9027 61.0764 24.8583 60.1042 25.625L46.4583 35.4166H58.3333L88.125 18.2291C88.8889 17.743 89.7403 17.6041 90.6792 17.8125C91.6181 18.0208 92.4681 18.5764 93.2292 19.4791C93.9931 20.3125 94.3056 21.268 94.1667 22.3458C94.0278 23.4236 93.507 24.3083 92.6042 25L60.4167 50L58.5417 87.7083C58.4722 88.8194 58.0208 89.7569 57.1875 90.5208C56.3542 91.2847 55.2778 91.6666 53.9583 91.6666Z" fill="black"/>
</svg>
